<svg xmlns="http://www.w3.org/2000/svg" viewBox="0 0 1440 900" preserveAspectRatio="xMidYMid slice">

  <rect width="1440" height="900" fill="#07111a"/>

  <!-- TEAL SWEEPING BAND -->
  <path d="M-100,900 C250,560 550,310 830,330 C1060,347 1270,210 1600,40"
        fill="none" stroke="#00404e" stroke-width="320" stroke-linecap="round" opacity="0.45"/>
  <path d="M-100,900 C250,560 550,310 830,330 C1060,347 1270,210 1600,40"
        fill="none" stroke="#006878" stroke-width="140" stroke-linecap="round" opacity="0.35"/>
  <path d="M-100,900 C250,560 550,310 830,330 C1060,347 1270,210 1600,40"
        fill="none" stroke="#009aaa" stroke-width="45" stroke-linecap="round" opacity="0.28"/>

  <!-- PINK MOUNTAIN TRIANGLES -->
  <polygon points="-200,950 200,260 600,950"   fill="#8a1050" opacity="0.48"/>
  <polygon points="180,950 630,110 1080,950"   fill="#9e1858" opacity="0.42"/>
  <polygon points="750,950 1080,360 1420,950"  fill="#761040" opacity="0.45"/>
  <polygon points="-250,950 40,580 320,950"    fill="#5e0c30" opacity="0.35"/>
  <polygon points="1050,950 1280,520 1520,950" fill="#680e38" opacity="0.35"/>

  <!-- SQUIGGLY LINES cluster at top -->
  <path d="M0,72 C18,65 36,79 54,72 C72,65 90,79 108,72 C126,65 144,79 162,72 C180,65 198,79 216,72 C234,65 252,79 270,72 C288,65 306,79 324,72 C342,65 360,79 378,72 C396,65 414,79 432,72 C450,65 468,79 486,72 C504,65 522,79 540,72 C558,65 576,79 594,72 C612,65 630,79 648,72 C666,65 684,79 702,72 C720,65 738,79 756,72 C774,65 792,79 810,72 C828,65 846,79 864,72 C882,65 900,79 918,72 C936,65 954,79 972,72 C990,65 1008,79 1026,72 C1044,65 1062,79 1080,72 C1098,65 1116,79 1134,72 C1152,65 1170,79 1188,72 C1206,65 1224,79 1242,72 C1260,65 1278,79 1296,72 C1314,65 1332,79 1350,72 C1368,65 1386,79 1404,72 C1422,65 1440,79 1440,72"
        fill="none" stroke="#00b0bc" stroke-width="3" opacity="0.55"/>
  <path d="M0,88 C18,81 36,95 54,88 C72,81 90,95 108,88 C126,81 144,95 162,88 C180,81 198,95 216,88 C234,81 252,95 270,88 C288,81 306,95 324,88 C342,81 360,95 378,88 C396,81 414,95 432,88 C450,81 468,95 486,88 C504,81 522,95 540,88 C558,81 576,95 594,88 C612,81 630,95 648,88 C666,81 684,95 702,88 C720,81 738,95 756,88 C774,81 792,95 810,88 C828,81 846,95 864,88 C882,81 900,95 918,88 C936,81 954,95 972,88 C990,81 1008,95 1026,88 C1044,81 1062,95 1080,88 C1098,81 1116,95 1134,88 C1152,81 1170,95 1188,88 C1206,81 1224,95 1242,88 C1260,81 1278,95 1296,88 C1314,81 1332,95 1350,88 C1368,81 1386,95 1404,88 C1422,81 1440,95 1440,88"
        fill="none" stroke="#00b0bc" stroke-width="2.5" opacity="0.45"/>
  <path d="M0,104 C18,97 36,111 54,104 C72,97 90,111 108,104 C126,97 144,111 162,104 C180,97 198,111 216,104 C234,97 252,111 270,104 C288,97 306,111 324,104 C342,97 360,111 378,104 C396,97 414,111 432,104 C450,97 468,111 486,104 C504,97 522,111 540,104 C558,97 576,111 594,104 C612,97 630,111 648,104 C666,97 684,111 702,104 C720,97 738,111 756,104 C774,97 792,111 810,104 C828,97 846,111 864,104 C882,97 900,111 918,104 C936,97 954,111 972,104 C990,97 1008,111 1026,104 C1044,97 1062,111 1080,104 C1098,97 1116,111 1134,104 C1152,97 1170,111 1188,104 C1206,97 1224,111 1242,104 C1260,97 1278,111 1296,104 C1314,97 1332,111 1350,104 C1368,97 1386,111 1404,104 C1422,97 1440,111 1440,104"
        fill="none" stroke="#00b0bc" stroke-width="2" opacity="0.38"/>
  <path d="M0,120 C18,113 36,127 54,120 C72,113 90,127 108,120 C126,113 144,127 162,120 C180,113 198,127 216,120 C234,113 252,127 270,120 C288,113 306,127 324,120 C342,113 360,127 378,120 C396,113 414,127 432,120 C450,113 468,127 486,120 C504,113 522,127 540,120 C558,113 576,127 594,120 C612,113 630,127 648,120 C666,113 684,127 702,120 C720,113 738,127 756,120 C774,113 792,127 810,120 C828,113 846,127 864,120 C882,113 900,127 918,120 C936,113 954,127 972,120 C990,113 1008,127 1026,120 C1044,113 1062,127 1080,120 C1098,113 1116,127 1134,120 C1152,113 1170,127 1188,120 C1206,113 1224,127 1242,120 C1260,113 1278,127 1296,120 C1314,113 1332,127 1350,120 C1368,113 1386,127 1404,120 C1422,113 1440,127 1440,120"
        fill="none" stroke="#00b0bc" stroke-width="1.5" opacity="0.30"/>
  <path d="M0,136 C18,129 36,143 54,136 C72,129 90,143 108,136 C126,129 144,143 162,136 C180,129 198,143 216,136 C234,129 252,143 270,136 C288,129 306,143 324,136 C342,129 360,143 378,136 C396,129 414,143 432,136 C450,129 468,143 486,136 C504,129 522,143 540,136 C558,129 576,143 594,136 C612,129 630,143 648,136 C666,129 684,143 702,136 C720,129 738,143 756,136 C774,129 792,143 810,136 C828,129 846,143 864,136 C882,129 900,143 918,136 C936,129 954,143 972,136 C990,129 1008,143 1026,136 C1044,129 1062,143 1080,136 C1098,129 1116,143 1134,136 C1152,129 1170,143 1188,136 C1206,129 1224,143 1242,136 C1260,129 1278,143 1296,136 C1314,129 1332,143 1350,136 C1368,129 1386,143 1404,136 C1422,129 1440,143 1440,136"
        fill="none" stroke="#00b0bc" stroke-width="1.5" opacity="0.24"/>

  <!-- DIAMOND ACCENTS -->
  <rect x="83"   y="36" width="18" height="18" fill="#cc2070" transform="rotate(45 92 45)"    opacity="0.70"/>
  <rect x="362"  y="22" width="14" height="14" fill="#00b8c8" transform="rotate(45 369 29)"   opacity="0.62"/>
  <rect x="670"  y="14" width="16" height="16" fill="#cc2070" transform="rotate(45 678 22)"   opacity="0.58"/>
  <rect x="1040" y="28" width="13" height="13" fill="#00b8c8" transform="rotate(45 1046 34)"  opacity="0.62"/>
  <rect x="1318" y="18" width="15" height="15" fill="#cc2070" transform="rotate(45 1325 25)"  opacity="0.60"/>
  <rect x="210"  y="48" width="9"  height="9"  fill="#cc2070" transform="rotate(45 214 52)"   opacity="0.45"/>
  <rect x="510"  y="32" width="8"  height="8"  fill="#00b8c8" transform="rotate(45 514 36)"   opacity="0.45"/>
  <rect x="870"  y="42" width="9"  height="9"  fill="#cc2070" transform="rotate(45 874 46)"   opacity="0.42"/>
  <rect x="1170" y="20" width="8"  height="8"  fill="#00b8c8" transform="rotate(45 1174 24)"  opacity="0.42"/>

  <!-- DOTS -->
  <circle cx="290"  cy="55"  r="5" fill="#00c8d4" opacity="0.50"/>
  <circle cx="590"  cy="40"  r="4" fill="#d42880" opacity="0.50"/>
  <circle cx="950"  cy="52"  r="5" fill="#00c8d4" opacity="0.46"/>
  <circle cx="1230" cy="36"  r="4" fill="#d42880" opacity="0.46"/>
  <circle cx="130"  cy="160" r="3" fill="#00aab8" opacity="0.36"/>
  <circle cx="1400" cy="56"  r="4" fill="#d42880" opacity="0.42"/>

</svg>
